<svg width="90" height="90" viewBox="0 0 90 90" fill="none" xmlns="http://www.w3.org/2000/svg">
<path d="M43.7993 1.06725C43.9683 -0.35575 46.0323 -0.35575 46.2013 1.06725L47.6173 12.9993C49.4453 28.4073 61.5933 40.5552 77.0013 42.3832L88.9333 43.7992C90.3563 43.9682 90.3563 46.0322 88.9333 46.2012L77.0013 47.6172C61.5933 49.4452 49.4453 61.5932 47.6173 77.0012L46.2013 88.9332C46.0323 90.3562 43.9683 90.3562 43.7993 88.9332L42.3833 77.0012C40.5553 61.5932 28.4073 49.4452 12.9993 47.6172L1.06725 46.2012C-0.35575 46.0322 -0.35575 43.9682 1.06725 43.7992L12.9993 42.3832C28.4073 40.5552 40.5553 28.4073 42.3833 12.9993L43.7993 1.06725Z" fill="#FDC830"/>
</svg>
